<svg xmlns="http://www.w3.org/2000/svg" width="1280" height="680" viewBox="0 0 1280 680" font-family="Inter, ui-sans-serif, system-ui, -apple-system, 'Segoe UI', Roboto, sans-serif">
<title>How a change flows through selfgrow</title>
<defs>
<marker id="arrow" viewBox="0 0 10 10" refX="8" refY="5" markerWidth="7" markerHeight="7" orient="auto-start-reverse"><path d="M1 1 L9 5 L1 9 Z" fill="#58616d"/></marker>
<marker id="arrow-devs" viewBox="0 0 10 10" refX="8" refY="5" markerWidth="7" markerHeight="7" orient="auto-start-reverse"><path d="M1 1 L9 5 L1 9 Z" fill="#3fb950"/></marker>
<marker id="arrow-tester" viewBox="0 0 10 10" refX="8" refY="5" markerWidth="7" markerHeight="7" orient="auto-start-reverse"><path d="M1 1 L9 5 L1 9 Z" fill="#db61a2"/></marker>
<marker id="arrow-parked" viewBox="0 0 10 10" refX="8" refY="5" markerWidth="7" markerHeight="7" orient="auto-start-reverse"><path d="M1 1 L9 5 L1 9 Z" fill="#f0883e"/></marker>
<marker id="arrow-owner" viewBox="0 0 10 10" refX="8" refY="5" markerWidth="7" markerHeight="7" orient="auto-start-reverse"><path d="M1 1 L9 5 L1 9 Z" fill="#a371f7"/></marker>
<filter id="shadow" x="-20%" y="-20%" width="140%" height="160%"><feDropShadow dx="0" dy="6" stdDeviation="9" flood-color="#000000" flood-opacity="0.45"/></filter>
<radialGradient id="glow-a"><stop offset="0" stop-color="#a371f7" stop-opacity="0.22"/><stop offset="1" stop-color="#a371f7" stop-opacity="0"/></radialGradient>
<radialGradient id="glow-b"><stop offset="0" stop-color="#4493f8" stop-opacity="0.22"/><stop offset="1" stop-color="#4493f8" stop-opacity="0"/></radialGradient>
<radialGradient id="glow-c"><stop offset="0" stop-color="#3fb950" stop-opacity="0.22"/><stop offset="1" stop-color="#3fb950" stop-opacity="0"/></radialGradient>
<radialGradient id="glow-d"><stop offset="0" stop-color="#db61a2" stop-opacity="0.22"/><stop offset="1" stop-color="#db61a2" stop-opacity="0"/></radialGradient>
<linearGradient id="title" x1="0" x2="1"><stop offset="0" stop-color="#a371f7"/><stop offset="0.55" stop-color="#4493f8"/><stop offset="1" stop-color="#3fb950"/></linearGradient>
<linearGradient id="group-border" x1="0" x2="1" y1="0" y2="1"><stop offset="0" stop-color="#3fb950"/><stop offset="1" stop-color="#2fb5a8"/></linearGradient>
<clipPath id="canvas"><rect width="1280" height="680" rx="24"/></clipPath>
</defs>
<rect width="1280" height="680" rx="24" fill="#0b0e14"/>
<g clip-path="url(#canvas)"><ellipse cx="180" cy="120" rx="420" ry="260" fill="url(#glow-a)"/><ellipse cx="760" cy="300" rx="520" ry="260" fill="url(#glow-c)"/><ellipse cx="1180" cy="620" rx="420" ry="240" fill="url(#glow-d)"/><ellipse cx="420" cy="560" rx="380" ry="200" fill="url(#glow-b)"/></g>
<text x="48" y="62" font-size="28" font-weight="800" letter-spacing="-0.02em" fill="url(#title)">How a change flows</text>
<text x="48" y="88" font-size="14" fill="#97a1ae">Every change takes the same loop, from a ticket to the live site and back. No person has to be in it.</text>
<rect x="250" y="104" width="210" height="92" rx="16" fill="#141922" stroke="#262d38" filter="url(#shadow)"/>
<rect x="266" y="118" width="28" height="28" rx="8" fill="#a371f7" fill-opacity="0.14"/>
<g transform="translate(272 124) scale(0.667)" fill="none" stroke="#a371f7" stroke-width="2.2" stroke-linecap="round" stroke-linejoin="round" color="#a371f7"><path d="M6 21V4"/><path d="M6 4h11l-2.5 4 2.5 4H6"/></g>
<text x="304" y="137" font-size="16" font-weight="650" fill="#eef2f7">Product Owner</text>
<text x="268" y="168" font-size="12.5" fill="#97a1ae">Vision and milestone</text>
<rect x="390.2" y="93" width="53.800000000000004" height="22" rx="11" fill="#a371f7"/>
<text x="417.1" y="108" font-size="11" font-weight="700" text-anchor="middle" fill="#ffffff">Mondays</text>
<rect x="40" y="254" width="170" height="128" rx="16" fill="#141922" stroke="#262d38" filter="url(#shadow)"/>
<rect x="56" y="268" width="28" height="28" rx="8" fill="#8b949e" fill-opacity="0.14"/>
<g transform="translate(62 274) scale(0.667)" fill="none" stroke="#8b949e" stroke-width="2.2" stroke-linecap="round" stroke-linejoin="round" color="#8b949e"><circle cx="12" cy="12" r="8"/><circle cx="12" cy="12" r="1.6" fill="currentColor"/></g>
<text x="94" y="287" font-size="16" font-weight="650" fill="#eef2f7">Issues</text>
<text x="58" y="318" font-size="12.5" fill="#97a1ae">filed by anyone: you,</text>
<text x="58" y="336" font-size="12.5" fill="#97a1ae">the Playtester,</text>
<text x="58" y="354" font-size="12.5" fill="#97a1ae">the Tech Lead</text>
<rect x="250" y="254" width="210" height="128" rx="16" fill="#141922" stroke="#262d38" filter="url(#shadow)"/>
<rect x="266" y="268" width="28" height="28" rx="8" fill="#4493f8" fill-opacity="0.14"/>
<g transform="translate(272 274) scale(0.667)" fill="none" stroke="#4493f8" stroke-width="2.2" stroke-linecap="round" stroke-linejoin="round" color="#4493f8"><path d="M10 6h10M10 12h10M10 18h10"/><path d="M4 6l1.5 1.5L8 5M4 12l1.5 1.5L8 11M4 18l1.5 1.5L8 17"/></g>
<text x="304" y="287" font-size="16" font-weight="650" fill="#eef2f7">Product Manager</text>
<text x="268" y="318" font-size="12.5" fill="#97a1ae">grooms every ticket:</text>
<text x="268" y="336" font-size="12.5" fill="#97a1ae">what the player gets,</text>
<text x="268" y="354" font-size="12.5" fill="#97a1ae">how to tell, priority</text>
<rect x="383.8" y="243" width="60.2" height="22" rx="11" fill="#4493f8"/>
<text x="413.9" y="258" font-size="11" font-weight="700" text-anchor="middle" fill="#ffffff">2× a day</text>
<rect x="496" y="200" width="568" height="218" rx="20" fill="#3fb950" fill-opacity="0.06" stroke="url(#group-border)" stroke-width="1.5"/>
<text x="516" y="228" font-size="13" font-weight="700" letter-spacing="0.06em" fill="#3fb950">DEVS</text>
<text x="560" y="228" font-size="12.5" fill="#97a1ae">right after the PM, up to 6 tickets a run</text>
<rect x="512" y="272" width="120" height="102" rx="14" fill="#141922" stroke="#262d38" filter="url(#shadow)"/>
<circle cx="532" cy="294" r="10" fill="#3fb950" fill-opacity="0.18"/>
<text x="532" y="298" font-size="11" font-weight="700" text-anchor="middle" fill="#3fb950">1</text>
<text x="550" y="299" font-size="15" font-weight="650" fill="#eef2f7">Scout</text>
<text x="526" y="324" font-size="12" fill="#97a1ae">plans one</text>
<text x="526" y="341" font-size="12" fill="#97a1ae">ticket</text>
<rect x="650" y="272" width="126" height="102" rx="14" fill="#141922" stroke="#262d38" filter="url(#shadow)"/>
<circle cx="670" cy="294" r="10" fill="#3fb950" fill-opacity="0.18"/>
<text x="670" y="298" font-size="11" font-weight="700" text-anchor="middle" fill="#3fb950">2</text>
<text x="688" y="299" font-size="15" font-weight="650" fill="#eef2f7">Builder</text>
<text x="664" y="324" font-size="12" fill="#97a1ae">writes it, guided</text>
<text x="664" y="341" font-size="12" fill="#97a1ae">by its skills</text>
<rect x="794" y="272" width="124" height="102" rx="14" fill="#141922" stroke="#262d38" filter="url(#shadow)"/>
<circle cx="814" cy="294" r="10" fill="#3fb950" fill-opacity="0.18"/>
<text x="814" y="298" font-size="11" font-weight="700" text-anchor="middle" fill="#3fb950">3</text>
<text x="832" y="299" font-size="15" font-weight="650" fill="#eef2f7">Checks</text>
<text x="808" y="324" font-size="12" fill="#97a1ae">syntax · lint · load</text>
<text x="808" y="341" font-size="12" fill="#97a1ae">selftest · tools</text>
<rect x="936" y="272" width="112" height="102" rx="14" fill="#141922" stroke="#262d38" filter="url(#shadow)"/>
<circle cx="956" cy="294" r="10" fill="#3fb950" fill-opacity="0.18"/>
<text x="956" y="298" font-size="11" font-weight="700" text-anchor="middle" fill="#3fb950">4</text>
<text x="974" y="299" font-size="15" font-weight="650" fill="#eef2f7">Reviewer</text>
<text x="950" y="324" font-size="12" fill="#97a1ae">other model,</text>
<text x="950" y="341" font-size="12" fill="#97a1ae">runs the page</text>
<rect x="1100" y="254" width="140" height="128" rx="16" fill="#141922" stroke="#262d38" filter="url(#shadow)"/>
<rect x="1116" y="268" width="28" height="28" rx="8" fill="#d29922" fill-opacity="0.14"/>
<g transform="translate(1122 274) scale(0.667)" fill="none" stroke="#d29922" stroke-width="2.2" stroke-linecap="round" stroke-linejoin="round" color="#d29922"><circle cx="6" cy="6" r="2.2"/><circle cx="6" cy="18" r="2.2"/><circle cx="18" cy="12" r="2.2"/><path d="M6 8.2v7.6"/><path d="M6 8.2c0 3.8 4 3.8 9.8 3.8"/></g>
<text x="1154" y="287" font-size="16" font-weight="650" fill="#eef2f7">main</text>
<text x="1118" y="318" font-size="12.5" fill="#97a1ae">merged and</text>
<text x="1118" y="336" font-size="12.5" fill="#97a1ae">live on the site</text>
<path d="M210 318 L246 318" fill="none" stroke="#58616d" stroke-width="2" stroke-linecap="round" stroke-linejoin="round" marker-end="url(#arrow)"/>
<path d="M460 318 L492 318" fill="none" stroke="#58616d" stroke-width="2" stroke-linecap="round" stroke-linejoin="round" marker-end="url(#arrow)"/>
<path d="M632 323 L646 323" fill="none" stroke="#3fb950" stroke-width="2" stroke-linecap="round" stroke-linejoin="round" marker-end="url(#arrow-devs)"/>
<path d="M776 323 L790 323" fill="none" stroke="#3fb950" stroke-width="2" stroke-linecap="round" stroke-linejoin="round" marker-end="url(#arrow-devs)"/>
<path d="M918 323 L932 323" fill="none" stroke="#3fb950" stroke-width="2" stroke-linecap="round" stroke-linejoin="round" marker-end="url(#arrow-devs)"/>
<path d="M1064 318 L1096 318" fill="none" stroke="#58616d" stroke-width="2" stroke-linecap="round" stroke-linejoin="round" marker-end="url(#arrow)"/>
<path d="M355 196 L355 250" fill="none" stroke="#a371f7" stroke-width="2" stroke-linecap="round" stroke-linejoin="round" marker-end="url(#arrow-owner)"/>
<path d="M856 272 C856 254, 713 254, 713 268" fill="none" stroke="#3fb950" stroke-width="2" stroke-dasharray="5 5" stroke-linecap="round" stroke-linejoin="round" marker-end="url(#arrow-devs)"/>
<rect x="740.25" y="247" width="87.5" height="22" rx="11" fill="#0b0e14" stroke="#3fb950" stroke-opacity="0.55"/><text x="784" y="262" font-size="11.5" font-weight="600" text-anchor="middle" fill="#3fb950">fails → fix</text>
<path d="M992 374 C992 400, 713 400, 713 378" fill="none" stroke="#3fb950" stroke-width="2" stroke-dasharray="5 5" stroke-linecap="round" stroke-linejoin="round" marker-end="url(#arrow-devs)"/>
<rect x="772.5" y="387" width="159.0" height="22" rx="11" fill="#0b0e14" stroke="#3fb950" stroke-opacity="0.55"/><text x="852" y="402" font-size="11.5" font-weight="600" text-anchor="middle" fill="#3fb950">revise · up to 3 tries</text>
<path d="M1170 254 L1170 150 L464 150" fill="none" stroke="#a371f7" stroke-width="2" stroke-dasharray="5 5" stroke-linecap="round" stroke-linejoin="round" marker-end="url(#arrow-owner)"/>
<rect x="773.0" y="139" width="94.0" height="22" rx="11" fill="#0b0e14" stroke="#a371f7" stroke-opacity="0.55"/><text x="820" y="154" font-size="11.5" font-weight="600" text-anchor="middle" fill="#a371f7">what shipped</text>
<path d="M713 418 L713 466" fill="none" stroke="#f0883e" stroke-width="2" stroke-linecap="round" stroke-linejoin="round" marker-end="url(#arrow-parked)"/>
<rect x="600" y="470" width="226" height="100" rx="16" fill="#141922" stroke="#262d38" filter="url(#shadow)"/>
<rect x="616" y="484" width="28" height="28" rx="8" fill="#f0883e" fill-opacity="0.14"/>
<g transform="translate(622 490) scale(0.667)" fill="none" stroke="#f0883e" stroke-width="2.2" stroke-linecap="round" stroke-linejoin="round" color="#f0883e"><path d="M9.5 6v12M14.5 6v12"/></g>
<text x="654" y="503" font-size="16" font-weight="650" fill="#eef2f7">Parked</text>
<text x="618" y="534" font-size="12.5" fill="#97a1ae">after 2 failed runs,</text>
<text x="618" y="552" font-size="12.5" fill="#97a1ae">with a post-mortem</text>
<path d="M600 520 L564 520" fill="none" stroke="#f0883e" stroke-width="2" stroke-linecap="round" stroke-linejoin="round" marker-end="url(#arrow-parked)"/>
<rect x="290" y="470" width="270" height="100" rx="16" fill="#141922" stroke="#262d38" filter="url(#shadow)"/>
<rect x="306" y="484" width="28" height="28" rx="8" fill="#2fb5a8" fill-opacity="0.14"/>
<g transform="translate(312 490) scale(0.667)" fill="none" stroke="#2fb5a8" stroke-width="2.2" stroke-linecap="round" stroke-linejoin="round" color="#2fb5a8"><circle cx="10.5" cy="10.5" r="6"/><path d="M15 15l5.5 5.5"/></g>
<text x="344" y="503" font-size="16" font-weight="650" fill="#eef2f7">Tech Lead</text>
<text x="308" y="534" font-size="12.5" fill="#97a1ae">reads the whole codebase,</text>
<text x="308" y="552" font-size="12.5" fill="#97a1ae">diagnoses what got parked</text>
<rect x="477.4" y="459" width="66.6" height="22" rx="11" fill="#2fb5a8"/>
<text x="510.7" y="474" font-size="11" font-weight="700" text-anchor="middle" fill="#ffffff">Thursdays</text>
<path d="M410 470 L410 386" fill="none" stroke="#58616d" stroke-width="2" stroke-linecap="round" stroke-linejoin="round" marker-end="url(#arrow)"/>
<path d="M1135 382 L1135 466" fill="none" stroke="#db61a2" stroke-width="2" stroke-linecap="round" stroke-linejoin="round" marker-end="url(#arrow-tester)"/>
<rect x="990" y="470" width="250" height="100" rx="16" fill="#141922" stroke="#262d38" filter="url(#shadow)"/>
<rect x="1006" y="484" width="28" height="28" rx="8" fill="#db61a2" fill-opacity="0.14"/>
<g transform="translate(1012 490) scale(0.667)" fill="none" stroke="#db61a2" stroke-width="2.2" stroke-linecap="round" stroke-linejoin="round" color="#db61a2"><path d="M2.5 12S6 5.5 12 5.5 21.5 12 21.5 12 18 18.5 12 18.5 2.5 12 2.5 12z"/><circle cx="12" cy="12" r="3"/></g>
<text x="1044" y="503" font-size="16" font-weight="650" fill="#eef2f7">Playtester</text>
<text x="1008" y="534" font-size="12.5" fill="#97a1ae">plays the live site, judges</text>
<text x="1008" y="552" font-size="12.5" fill="#97a1ae">it on desktop and phone</text>
<rect x="1170.2" y="459" width="53.800000000000004" height="22" rx="11" fill="#db61a2"/>
<text x="1197.1" y="474" font-size="11" font-weight="700" text-anchor="middle" fill="#ffffff">nightly</text>
<path d="M1115 570 L1115 622 L125 622 L125 386" fill="none" stroke="#db61a2" stroke-width="2" stroke-dasharray="5 5" stroke-linecap="round" stroke-linejoin="round" marker-end="url(#arrow-tester)"/>
<rect x="563.75" y="611" width="152.5" height="22" rx="11" fill="#0b0e14" stroke="#db61a2" stroke-opacity="0.55"/><text x="640" y="626" font-size="11.5" font-weight="600" text-anchor="middle" fill="#db61a2">findings and verdicts</text>
<text x="48" y="660" font-size="12" fill="#97a1ae">A change merges only when the checks pass and a Reviewer on a different model approves. Changes to the machine itself wait for a person.</text>
</svg>